<?xml version="1.0" standalone="no"?><!DOCTYPE svg PUBLIC "-//W3C//DTD SVG 1.1//EN" "http://www.w3.org/Graphics/SVG/1.1/DTD/svg11.dtd"><svg class="icon" width="200px" height="200.00px" viewBox="0 0 1024 1024" version="1.1" xmlns="http://www.w3.org/2000/svg"><path fill="#e85513" d="M800 960h-576a128 128 0 0 1-128-128V192a128 128 0 0 1 128-128h576a128 128 0 0 1 128 128v640a128 128 0 0 1-128 128z m64-768a64 64 0 0 0-64-64h-576a64 64 0 0 0-64 64v640a64 64 0 0 0 64 64h576a64 64 0 0 0 64-64V192z m-576 256h384v64h-384V448z m0-128h256v64h-256V320z" /></svg>