<?xml version="1.0" standalone="no"?><!DOCTYPE svg PUBLIC "-//W3C//DTD SVG 1.1//EN" "http://www.w3.org/Graphics/SVG/1.1/DTD/svg11.dtd"><svg class="icon" width="200px" height="200.00px" viewBox="0 0 1024 1024" version="1.1" xmlns="http://www.w3.org/2000/svg"><path fill="#dfa009" d="M704 0H320a96 96 0 0 0-96 96v832a96 96 0 0 0 96 96h384a96 96 0 0 0 96-96V96a96 96 0 0 0-96-96z m32 928a32 32 0 0 1-32 32H320a32 32 0 0 1-32-32V96a32 32 0 0 1 32-32h384a32 32 0 0 1 32 32z m-224-128a64 64 0 1 0 64 64 64 64 0 0 0-64-64z m64-704h-128a32 32 0 0 0 0 64h128a32 32 0 0 0 0-64z"  /></svg>